<svg width="207" height="23" viewBox="0 0 207 23" fill="none" xmlns="http://www.w3.org/2000/svg">
<path d="M9.24 18.144C7.912 18.144 6.68 17.936 5.544 17.52C4.424 17.088 3.448 16.48 2.616 15.696C1.8 14.912 1.16 13.992 0.696 12.936C0.232 11.864 0 10.688 0 9.408C0 8.128 0.232 6.96 0.696 5.904C1.16 4.832 1.8 3.904 2.616 3.12C3.448 2.336 4.424 1.736 5.544 1.32C6.68 0.888 7.912 0.672 9.24 0.672C10.792 0.672 12.176 0.944 13.392 1.488C14.624 2.032 15.648 2.816 16.464 3.84L13.44 6.576C12.896 5.936 12.296 5.448 11.64 5.112C11 4.776 10.28 4.608 9.48 4.608C8.792 4.608 8.16 4.72 7.584 4.944C7.008 5.168 6.512 5.496 6.096 5.928C5.696 6.344 5.376 6.848 5.136 7.44C4.912 8.032 4.8 8.688 4.8 9.408C4.8 10.128 4.912 10.784 5.136 11.376C5.376 11.968 5.696 12.48 6.096 12.912C6.512 13.328 7.008 13.648 7.584 13.872C8.16 14.096 8.792 14.208 9.48 14.208C10.28 14.208 11 14.04 11.64 13.704C12.296 13.368 12.896 12.88 13.44 12.24L16.464 14.976C15.648 15.984 14.624 16.768 13.392 17.328C12.176 17.872 10.792 18.144 9.24 18.144Z" fill="#0D99FF"/>
<path d="M26.8388 4.584C27.8468 4.584 28.7588 4.792 29.5748 5.208C30.3908 5.608 31.0308 6.232 31.4948 7.08C31.9748 7.928 32.2147 9.024 32.2147 10.368V17.808H27.6548V11.112C27.6548 10.184 27.4628 9.512 27.0788 9.096C26.7108 8.664 26.1908 8.448 25.5188 8.448C25.0388 8.448 24.5988 8.56 24.1988 8.784C23.7988 8.992 23.4868 9.32 23.2628 9.768C23.0388 10.216 22.9268 10.8 22.9268 11.52V17.808H18.3668V0H22.9268V8.496L21.8708 7.416C22.3668 6.472 23.0468 5.768 23.9108 5.304C24.7748 4.824 25.7508 4.584 26.8388 4.584Z" fill="#0D99FF"/>
<path d="M42.0577 18.024C40.5217 18.024 39.1777 17.736 38.0257 17.16C36.8897 16.568 36.0017 15.768 35.3617 14.76C34.7377 13.736 34.4257 12.576 34.4257 11.28C34.4257 9.984 34.7297 8.832 35.3377 7.824C35.9617 6.8 36.8177 6.008 37.9057 5.448C38.9937 4.872 40.2177 4.584 41.5777 4.584C42.8577 4.584 44.0257 4.848 45.0817 5.376C46.1377 5.888 46.9777 6.648 47.6017 7.656C48.2257 8.664 48.5378 9.888 48.5378 11.328C48.5378 11.488 48.5297 11.672 48.5137 11.88C48.4977 12.088 48.4817 12.28 48.4657 12.456H38.1698V10.056H46.0417L44.3137 10.728C44.3297 10.136 44.2177 9.624 43.9777 9.192C43.7537 8.76 43.4337 8.424 43.0177 8.184C42.6177 7.944 42.1457 7.824 41.6017 7.824C41.0577 7.824 40.5777 7.944 40.1617 8.184C39.7617 8.424 39.4497 8.768 39.2257 9.216C39.0017 9.648 38.8897 10.16 38.8897 10.752V11.448C38.8897 12.088 39.0178 12.64 39.2738 13.104C39.5458 13.568 39.9297 13.928 40.4257 14.184C40.9217 14.424 41.5137 14.544 42.2017 14.544C42.8417 14.544 43.3857 14.456 43.8337 14.28C44.2977 14.088 44.7537 13.8 45.2017 13.416L47.6017 15.912C46.9777 16.6 46.2097 17.128 45.2977 17.496C44.3857 17.848 43.3057 18.024 42.0577 18.024Z" fill="#0D99FF"/>
<path d="M57.2882 18.024C55.8482 18.024 54.5602 17.736 53.4242 17.16C52.3042 16.584 51.4242 15.792 50.7842 14.784C50.1442 13.76 49.8242 12.592 49.8242 11.28C49.8242 9.968 50.1442 8.808 50.7842 7.8C51.4242 6.792 52.3042 6.008 53.4242 5.448C54.5602 4.872 55.8482 4.584 57.2882 4.584C58.7602 4.584 60.0322 4.896 61.1042 5.52C62.1762 6.144 62.9362 7.024 63.3842 8.16L59.8562 9.96C59.5522 9.352 59.1762 8.912 58.7282 8.64C58.2802 8.352 57.7922 8.208 57.2642 8.208C56.7362 8.208 56.2562 8.328 55.8242 8.568C55.3922 8.808 55.0482 9.16 54.7922 9.624C54.5522 10.072 54.4322 10.624 54.4322 11.28C54.4322 11.952 54.5522 12.52 54.7922 12.984C55.0482 13.448 55.3922 13.8 55.8242 14.04C56.2562 14.28 56.7362 14.4 57.2642 14.4C57.7922 14.4 58.2802 14.264 58.7282 13.992C59.1762 13.704 59.5522 13.256 59.8562 12.648L63.3842 14.448C62.9362 15.584 62.1762 16.464 61.1042 17.088C60.0322 17.712 58.7602 18.024 57.2882 18.024Z" fill="#0D99FF"/>
<path d="M68.8462 15.408L68.9662 9.96L74.2702 4.8H79.6702L73.7902 10.872L71.4622 12.744L68.8462 15.408ZM65.0542 17.808V0H69.6143V17.808H65.0542ZM74.6062 17.808L70.6222 12.816L73.4542 9.312L80.1263 17.808H74.6062Z" fill="#0D99FF"/>
<path d="M87.6269 18.144C86.2509 18.144 84.9229 17.976 83.6429 17.64C82.3789 17.288 81.3469 16.84 80.5469 16.296L82.1069 12.792C82.8589 13.272 83.7229 13.672 84.6989 13.992C85.6909 14.296 86.6749 14.448 87.6509 14.448C88.3069 14.448 88.8349 14.392 89.2349 14.28C89.6349 14.152 89.9229 13.992 90.0989 13.8C90.2909 13.592 90.3869 13.352 90.3869 13.08C90.3869 12.696 90.2109 12.392 89.8589 12.168C89.5069 11.944 89.0509 11.76 88.4909 11.616C87.9309 11.472 87.3069 11.328 86.6189 11.184C85.9469 11.04 85.2669 10.856 84.5789 10.632C83.9069 10.408 83.2909 10.12 82.7309 9.768C82.1709 9.4 81.7149 8.928 81.3629 8.352C81.0109 7.76 80.8349 7.016 80.8349 6.12C80.8349 5.112 81.1069 4.2 81.6509 3.384C82.2109 2.568 83.0429 1.912 84.1469 1.416C85.2509 0.92 86.6269 0.672 88.2749 0.672C89.3789 0.672 90.4589 0.8 91.5149 1.056C92.5869 1.296 93.5389 1.656 94.3709 2.136L92.9069 5.664C92.1069 5.232 91.3149 4.912 90.5309 4.704C89.7469 4.48 88.9869 4.368 88.2509 4.368C87.5949 4.368 87.0669 4.44 86.6669 4.584C86.2669 4.712 85.9789 4.888 85.8029 5.112C85.6269 5.336 85.5389 5.592 85.5389 5.88C85.5389 6.248 85.7069 6.544 86.0429 6.768C86.3949 6.976 86.8509 7.152 87.4109 7.296C87.9869 7.424 88.6109 7.56 89.2829 7.704C89.9709 7.848 90.6509 8.032 91.3229 8.256C92.0109 8.464 92.6349 8.752 93.1949 9.12C93.7549 9.472 94.2029 9.944 94.5389 10.536C94.8909 11.112 95.0669 11.84 95.0669 12.72C95.0669 13.696 94.7869 14.6 94.2269 15.432C93.6829 16.248 92.8589 16.904 91.7549 17.4C90.6669 17.896 89.2909 18.144 87.6269 18.144Z" fill="white"/>
<path d="M105.23 18.024C104.126 18.024 103.182 17.784 102.398 17.304C101.614 16.808 101.014 16.072 100.598 15.096C100.198 14.104 99.9979 12.84 99.9979 11.304C99.9979 9.752 100.19 8.488 100.574 7.512C100.958 6.52 101.534 5.784 102.302 5.304C103.086 4.824 104.062 4.584 105.23 4.584C106.414 4.584 107.486 4.864 108.446 5.424C109.422 5.968 110.19 6.744 110.75 7.752C111.326 8.744 111.614 9.928 111.614 11.304C111.614 12.68 111.326 13.872 110.75 14.88C110.19 15.888 109.422 16.664 108.446 17.208C107.486 17.752 106.414 18.024 105.23 18.024ZM97.0459 22.464V4.8H101.39V7.008L101.366 11.304L101.606 15.624V22.464H97.0459ZM104.27 14.4C104.782 14.4 105.238 14.28 105.638 14.04C106.054 13.8 106.382 13.448 106.622 12.984C106.878 12.52 107.006 11.96 107.006 11.304C107.006 10.648 106.878 10.088 106.622 9.624C106.382 9.16 106.054 8.808 105.638 8.568C105.238 8.328 104.782 8.208 104.27 8.208C103.758 8.208 103.294 8.328 102.878 8.568C102.478 8.808 102.15 9.16 101.894 9.624C101.654 10.088 101.534 10.648 101.534 11.304C101.534 11.96 101.654 12.52 101.894 12.984C102.15 13.448 102.478 13.8 102.878 14.04C103.294 14.28 103.758 14.4 104.27 14.4Z" fill="white"/>
<path d="M120.549 18.024C119.013 18.024 117.669 17.736 116.517 17.16C115.381 16.568 114.493 15.768 113.853 14.76C113.229 13.736 112.917 12.576 112.917 11.28C112.917 9.984 113.221 8.832 113.829 7.824C114.453 6.8 115.309 6.008 116.397 5.448C117.485 4.872 118.709 4.584 120.069 4.584C121.349 4.584 122.517 4.848 123.573 5.376C124.629 5.888 125.469 6.648 126.093 7.656C126.717 8.664 127.029 9.888 127.029 11.328C127.029 11.488 127.021 11.672 127.005 11.88C126.989 12.088 126.973 12.28 126.957 12.456H116.661V10.056H124.533L122.805 10.728C122.821 10.136 122.709 9.624 122.469 9.192C122.245 8.76 121.925 8.424 121.509 8.184C121.109 7.944 120.637 7.824 120.093 7.824C119.549 7.824 119.069 7.944 118.653 8.184C118.253 8.424 117.941 8.768 117.717 9.216C117.493 9.648 117.381 10.16 117.381 10.752V11.448C117.381 12.088 117.509 12.64 117.765 13.104C118.037 13.568 118.421 13.928 118.917 14.184C119.413 14.424 120.005 14.544 120.693 14.544C121.333 14.544 121.877 14.456 122.325 14.28C122.789 14.088 123.245 13.8 123.693 13.416L126.093 15.912C125.469 16.6 124.701 17.128 123.789 17.496C122.877 17.848 121.797 18.024 120.549 18.024Z" fill="white"/>
<path d="M135.948 18.024C134.412 18.024 133.068 17.736 131.916 17.16C130.78 16.568 129.892 15.768 129.252 14.76C128.628 13.736 128.316 12.576 128.316 11.28C128.316 9.984 128.62 8.832 129.228 7.824C129.852 6.8 130.708 6.008 131.796 5.448C132.884 4.872 134.108 4.584 135.468 4.584C136.748 4.584 137.916 4.848 138.972 5.376C140.028 5.888 140.868 6.648 141.492 7.656C142.116 8.664 142.428 9.888 142.428 11.328C142.428 11.488 142.42 11.672 142.404 11.88C142.388 12.088 142.372 12.28 142.356 12.456H132.06V10.056H139.932L138.204 10.728C138.22 10.136 138.108 9.624 137.868 9.192C137.644 8.76 137.324 8.424 136.908 8.184C136.508 7.944 136.036 7.824 135.492 7.824C134.948 7.824 134.468 7.944 134.052 8.184C133.652 8.424 133.34 8.768 133.116 9.216C132.892 9.648 132.78 10.16 132.78 10.752V11.448C132.78 12.088 132.908 12.64 133.164 13.104C133.436 13.568 133.82 13.928 134.316 14.184C134.812 14.424 135.404 14.544 136.092 14.544C136.732 14.544 137.276 14.456 137.724 14.28C138.188 14.088 138.644 13.8 139.092 13.416L141.492 15.912C140.868 16.6 140.1 17.128 139.188 17.496C138.276 17.848 137.196 18.024 135.948 18.024Z" fill="white"/>
<path d="M151.178 18.024C149.738 18.024 148.45 17.736 147.314 17.16C146.194 16.584 145.314 15.792 144.674 14.784C144.034 13.76 143.714 12.592 143.714 11.28C143.714 9.968 144.034 8.808 144.674 7.8C145.314 6.792 146.194 6.008 147.314 5.448C148.45 4.872 149.738 4.584 151.178 4.584C152.65 4.584 153.922 4.896 154.994 5.52C156.066 6.144 156.826 7.024 157.274 8.16L153.746 9.96C153.442 9.352 153.066 8.912 152.618 8.64C152.17 8.352 151.682 8.208 151.154 8.208C150.626 8.208 150.146 8.328 149.714 8.568C149.282 8.808 148.938 9.16 148.682 9.624C148.442 10.072 148.322 10.624 148.322 11.28C148.322 11.952 148.442 12.52 148.682 12.984C148.938 13.448 149.282 13.8 149.714 14.04C150.146 14.28 150.626 14.4 151.154 14.4C151.682 14.4 152.17 14.264 152.618 13.992C153.066 13.704 153.442 13.256 153.746 12.648L157.274 14.448C156.826 15.584 156.066 16.464 154.994 17.088C153.922 17.712 152.65 18.024 151.178 18.024Z" fill="white"/>
<path d="M167.416 4.584C168.424 4.584 169.336 4.792 170.152 5.208C170.968 5.608 171.608 6.232 172.072 7.08C172.552 7.928 172.792 9.024 172.792 10.368V17.808H168.232V11.112C168.232 10.184 168.04 9.512 167.656 9.096C167.288 8.664 166.768 8.448 166.096 8.448C165.616 8.448 165.176 8.56 164.776 8.784C164.376 8.992 164.064 9.32 163.84 9.768C163.616 10.216 163.504 10.8 163.504 11.52V17.808H158.944V0H163.504V8.496L162.448 7.416C162.944 6.472 163.624 5.768 164.488 5.304C165.352 4.824 166.328 4.584 167.416 4.584Z" fill="white"/>
<path d="M180.84 18.0002L188.256 1.2002H192.936L200.376 18.0002H195.432L189.624 3.5282H191.496L185.688 18.0002H180.84ZM184.896 14.7362L186.12 11.2322H194.328L195.552 14.7362H184.896Z" fill="#0D99FF"/>
<path d="M201.723 18.0002V1.2002H206.475V18.0002H201.723Z" fill="#0D99FF"/>
</svg>
